# xmcd
#
# Track frame offsets:
#	150
#	19838
#	41903
#	59930
#	78562
#	96645
#	117199
#	140135
#	155476
#	172377
#	191212
#	206225
#	224030
#	241889
#	259286
#	276382
#	294166
#	314323
#
# Disc length: 4437
#
# Revision: 3
# Processed by: cddbd v1.5.1PL0 Copyright (c) Steve Scherf et al.
# Submitted via: CDex 1.30FinalFR
# Normalized: r1:TRMNUM;r2:TDELIM( - )
#
DISCID=36115312
DTITLE=Country Hits 2004 - The Best Of New Country
DYEAR=2004
DGENRE=Country
TTITLE0=Dierks Bentley - What Was I Thinkin'
TTITLE1=Keith Urban - You'll Think Of Me
TTITLE2=Pat Green - Wave On Wave
TTITLE3=Jason McCoy - Still
TTITLE4=Chris Caggle - Chicks Dig It
TTITLE5=Cross Canadian Ragweed - Sick ANd TIred(With Lee Ann Womack)
TTITLE6=Paul Brandt - Leavin'
TTITLE7=Reba McEntire - I'm Gonna Take That Mountain
TTITLE8=Deric Ruttan - When You Come Around
TTITLE9=Josh Turner - Long Black Train
TTITLE10=Trace Adkins - Hot Mama
TTITLE11=Doc Walker - Get Up
TTITLE12=Garry Allan - Though Little Boys
TTITLE13=Joe Nichols - Brokenheartsville
TTITLE14=Tracy Lawrence - Paint Me A Birmingham
TTITLE15=Chris Cummings - Lucy Got Lucky
TTITLE16=John Michael Montgommery - Letters From Home
TTITLE17=Jimmy Wayne - I Love You This Much
EXTD=YEAR: 2004 ID3G:   2
EXTT0=
EXTT1=
EXTT2=
EXTT3=
EXTT4=
EXTT5=
EXTT6=
EXTT7=
EXTT8=
EXTT9=
EXTT10=
EXTT11=
EXTT12=
EXTT13=
EXTT14=
EXTT15=
EXTT16=
EXTT17=
PLAYORDER=
